<?xml version="1.0" encoding="UTF-8" standalone="no"?>
<svg xmlns="http://www.w3.org/2000/svg" height="149.388" viewBox="0 0 733.29999 149.3875" width="733.3">
  <defs>
    <linearGradient x1="0" y1="0" x2="1" y2="0" id="c" gradientUnits="userSpaceOnUse" gradientTransform="matrix(-.000130604 2987.76 2987.76 .000130604 1524.76 -.000118095)">
      <stop stop-color="#ed1a3e" offset="0"/>
      <stop stop-color="#f25126" offset="1"/>
    </linearGradient>
    <linearGradient x1="0" y1="0" x2="1" y2="0" id="a" gradientUnits="userSpaceOnUse" gradientTransform="matrix(-.000130604 2987.76 2987.76 .000130604 1524.76 -.000118095)">
      <stop stop-color="#f9aac7" offset="0"/>
      <stop stop-color="#fbc8bb" offset="1"/>
    </linearGradient>
    <linearGradient x1="0" y1="0" x2="1" y2="0" id="b" gradientUnits="userSpaceOnUse" gradientTransform="matrix(-.000130604 2987.76 2987.76 .000130604 1524.76 -.000118095)">
      <stop stop-color="#fcd6e5" offset="0"/>
      <stop stop-color="#fde5e1" offset="1"/>
    </linearGradient>
  </defs>
  <g transform="matrix(.05 0 0 -.05 0 149.388)">
    <path d="m2858.62 0h-2667.72c-105.435 0-190.9 85.4688-190.9 190.898v2605.95c0 105.44 85.4648 190.9 190.895 190.9h2667.72c105.42 0 190.89-85.46 190.89-190.9v-2605.95c0-105.431-85.47-190.9-190.89-190.9m-1338.37 1109.79 672.06-522.052c37.21-28.906 80.53-41.894 122.88-41.898 98.4-0.012 191.67 70.066 191.67 173.371v1156.99l-493.31-383.2-493.16 383.09-493.31-383.2-493.439 383.31v-1156.99c0-103.297 93.277-173.367 191.668-173.371 42.359-0.004 85.66 12.98 122.886 41.898l672.055 522.052" fill="url(#c)"/>
    <path d="m2315.19 545.84c-42.35 0.004-85.67 12.992-122.88 41.898l-672.06 522.052 493.3 383.21 493.31-383.21v-390.579c0-103.305-93.27-173.383-191.67-173.371" fill="url(#a)"/>
    <path d="m725.309 545.84c-98.391 0.004-191.668 70.074-191.668 173.371v390.369l493.439 383.31 493.17-383.1-672.055-522.052c-37.226-28.918-80.527-41.902-122.886-41.898" fill="url(#a)"/>
    <g fill="url(#b)">
      <path d="m1520.25 1109.79-493.17 383.1 493.31 383.2 493.16-383.09-493.3-383.21"/>
      <path d="m533.641 1109.58v766.62l493.439-383.31-493.439-383.31"/>
      <path d="m2506.86 1109.79-493.31 383.21 493.31 383.2v-766.41"/>
    </g>
    <path d="m2507 2266.89c0 147.77-190.87 227.55-314.55 131.48l-672.2-522.17 0.14-0.11h-0.28 0.28l493.16-383.09 493.17 383.09h0.28v390.8" fill="#fff"/>
    <path d="m1520.54 1876.2h-0.29l-671.918 521.95c-123.676 96.07-314.555 16.3-314.555-131.48v-390.47h-0.14l0.14-0.11 493.303-383.2 493.31 383.2-0.14 0.11h0.29" fill="#fff"/>
    <g fill="#fff">
      <path d="m4916.29 976.27v650.81c0 96.02-42.66 164.3-153.62 164.3-95.98 0-174.96-64.02-213.35-119.5v-695.61h-273.12v650.81c0 96.02-42.7 164.3-153.65 164.3-93.89 0-172.84-64.02-213.36-119.5v-695.61h-271.01v1030.61h271.01v-132.28c44.79 59.74 179.23 157.89 337.11 157.89 151.5 0 249.65-70.41 285.95-185.63 59.73 91.74 196.3 185.63 354.19 185.63 189.91 0 303.01-100.29 303.01-311.54v-744.68h-273.16"/>
      <path d="m6068.2 976.27v130.16c-70.41-76.81-194.14-155.77-362.74-155.77-226.2 0-332.89 123.77-332.89 324.34v731.88h271.02v-625.18c0-142.97 74.68-189.91 189.91-189.91 104.52 0 187.77 57.6 234.7 117.35v697.74h271.03v-1030.61h-271.03"/>
      <path d="m6475.51 1110.7 117.32 196.31c76.81-72.55 228.33-142.96 356.33-142.96 117.42 0 172.88 44.8 172.88 108.82 0 168.56-610.29 29.87-610.29 435.28 0 172.85 149.39 324.34 422.52 324.34 172.82 0 311.5-59.75 413.92-140.83l-108.78-192.04c-61.91 64.02-179.24 119.5-305.14 119.5-98.16 0-162.2-42.69-162.2-100.29 0-151.5 612.41-23.47 612.41-439.56 0-189.91-162.19-328.61-448.08-328.61-179.27 0-352.11 59.75-460.89 160.04"/>
      <path d="m7497.33 976.27v1030.61h271.03v-1030.61h-271.03zm-25.58 1303.74c0 89.62 72.54 160.04 160.07 160.04 89.57 0 162.15-70.42 162.15-160.04s-72.58-162.18-162.15-162.18c-87.53 0-160.07 72.56-160.07 162.18"/>
      <path d="m8675.07 976.27-234.74 347.8-236.83-347.8h-300.87l367.01 529.18-345.66 501.43h303l213.35-315.79 211.26 315.79h303l-343.56-501.43 367-529.18h-302.96"/>
      <path d="m10390.4 976.27v650.81c0 96.02-42.7 164.3-153.6 164.3-96.1 0-175-64.02-213.4-119.5v-695.61h-273.1v650.81c0 96.02-42.74 164.3-153.66 164.3-93.89 0-172.83-64.02-213.39-119.5v-695.61h-270.98v1030.61h270.98v-132.28c44.79 59.74 179.23 157.89 337.12 157.89 151.52 0 249.68-70.41 285.93-185.63 59.8 91.74 196.4 185.63 354.2 185.63 189.9 0 303-100.29 303-311.54v-744.68h-273.1"/>
      <path d="m11244 1148.23c-55.9 0-103.1 13.35-140.1 39.73-35.9 25.51-53.3 60.53-53.3 106.97v4.07c0 51.89 19.4 90.86 59.3 119.1 41.1 29.07 100.5 43.81 176.7 43.81 47.6 0 92-4.02 132-11.89 35.7-7.02 67.9-15.71 95.9-25.91v-62.19c0-31.12-7-60.1-20.6-86.08-13.8-26.4-32.6-49.35-55.8-68.19-23.4-18.93-52-33.7-85.1-43.89-33.5-10.3-70.2-15.53-109-15.53zm506 657.1c-19.7 57.53-50.3 107.37-91.1 148.12-79.6 82.46-202.9 124.36-366.2 124.36-191.8 0-348.8-68.37-408.9-95.72l-12.9-5.86 4.5-13.41 63.5-185.79 5.3-15.96 15.6 6.47c47.8 19.96 95.6 36.1 142 47.99 45.8 11.83 99.1 17.8 158.4 17.8 82.3 0 145.4-18.5 187.7-55.01 41.5-35.97 62.5-90.71 62.5-162.69v-5.12c-36.2 10.81-73.6 19.76-111.4 26.62-45.4 8.24-99.6 12.43-161.1 12.43-66 0-127.7-7.35-183.6-21.81-56.5-14.67-105.3-37.03-145.4-66.5-40.4-29.71-72.3-67.79-95-113.16-22.7-45.34-34.1-98.91-34.1-159.26v-4.04c0-56.43 11.1-106.98 33.1-150.23 21.9-43.07 51.3-79.61 87.4-108.59 35.8-28.825 78.2-50.939 125.9-65.677 47.3-14.613 97.3-22.027 148.7-22.027 84.9 0 157.7 15.992 216.6 47.515 44.9 24.039 84.1 52.409 116.9 84.579v-109.79h270.9v650.98c0 71.68-9.9 136.9-29.3 193.78"/>
      <path d="m12052.9 1234.46v535.57h-170.7v236.85h170.7v281.66h271v-281.66h209.1v-236.85h-209.1v-463.02c0-66.15 34.1-115.22 93.9-115.22 40.5 0 78.9 14.93 93.8 31.99l57.7-206.97c-40.5-36.267-113.1-66.15-226.2-66.15-189.9 0-290.2 98.16-290.2 283.8"/>
      <path d="m12609.7 1492.65c0 315.79 230.4 539.84 546.2 539.84 211.3 0 339.3-91.76 407.6-185.63l-177.1-166.45c-49.1 72.55-123.8 110.97-217.7 110.97-164.3 0-279.5-119.5-279.5-298.73 0-179.24 115.2-300.86 279.5-300.86 93.9 0 168.6 42.67 217.7 113.08l177.1-166.43c-68.3-93.89-196.3-187.78-407.6-187.78-315.8 0-546.2 224.05-546.2 541.99"/>
      <path d="m14395.4 976.27v627.33c0 142.97-74.6 187.78-189.9 187.78-106.7 0-189.9-59.75-234.7-119.5v-695.61h-273.1v1423.23h273.1v-524.9c66.2 76.81 192 157.89 360.6 157.89 226.2 0 335-123.76 335-324.34v-731.88h-271"/>
    </g>
  </g>
</svg>